<svg width="16" height="16" viewBox="0 0 16 16" fill="none" xmlns="http://www.w3.org/2000/svg">
<rect width="16" height="16" rx="2" fill="black"/>
<path d="M5.25781 4.72727H6.99077L6.1598 9.76278C6.07931 10.2339 5.90057 10.6446 5.62358 10.995C5.34659 11.3454 4.99621 11.6177 4.57244 11.8118C4.14867 12.0036 3.67874 12.0994 3.16264 12.0994C2.71046 12.0994 2.31155 12.0201 1.96591 11.8615C1.62027 11.7029 1.36458 11.4567 1.19886 11.1229C1.03314 10.7891 0.994081 10.3617 1.08168 9.84091H2.82884C2.80516 10.0303 2.81345 10.1901 2.85369 10.3203C2.89631 10.4505 2.96851 10.5488 3.07031 10.6151C3.17448 10.6813 3.30824 10.7145 3.47159 10.7145C3.64205 10.7145 3.79119 10.6778 3.91903 10.6044C4.04924 10.531 4.15696 10.4221 4.24219 10.2777C4.32978 10.1333 4.39252 9.95691 4.4304 9.74858L5.25781 4.72727ZM10.1142 12H7.3869L8.59428 4.72727H11.2399C11.9785 4.72727 12.594 4.8776 13.0865 5.17827C13.5813 5.47656 13.9305 5.90507 14.1341 6.46378C14.34 7.02012 14.3791 7.683 14.2512 8.45241C14.1281 9.19579 13.8807 9.83262 13.5091 10.3629C13.1397 10.8932 12.6663 11.2992 12.0886 11.581C11.5109 11.8603 10.8528 12 10.1142 12ZM9.38974 10.5014H10.2243C10.6315 10.5014 10.9913 10.428 11.3038 10.2812C11.6187 10.1321 11.8791 9.89418 12.085 9.56747C12.291 9.2384 12.4378 8.80634 12.5254 8.27131C12.6106 7.75994 12.6071 7.3563 12.5147 7.06037C12.4248 6.76207 12.2496 6.54901 11.9892 6.42116C11.7311 6.29096 11.3938 6.22585 10.9771 6.22585H10.1035L9.38974 10.5014Z" fill="white"/>
</svg>
