<svg width="694" height="694" viewBox="0 0 694 694" fill="none" xmlns="http://www.w3.org/2000/svg">
<circle cx="347" cy="347" r="346" stroke="black" stroke-width="2"/>
<path d="M347.002 1C397.739 1.00022 443.904 39.4409 477.442 102.105C510.959 164.728 531.72 251.31 531.72 347C531.72 442.69 510.959 529.272 477.442 591.895C443.904 654.559 397.739 693 347.002 693C296.265 693 250.1 654.559 216.561 591.895C183.044 529.272 162.283 442.69 162.283 347C162.283 251.31 183.044 164.728 216.561 102.105C250.1 39.4407 296.265 1 347.002 1Z" stroke="black" stroke-width="2"/>
<path d="M1 347C1.00022 296.262 39.4409 250.098 102.105 216.559C164.728 183.043 251.31 162.282 347 162.282C442.69 162.282 529.272 183.043 591.894 216.559C654.559 250.098 693 296.262 693 347C693 397.737 654.559 443.902 591.894 477.441C529.272 510.957 442.69 531.718 347 531.718C251.31 531.718 164.728 510.957 102.105 477.441C39.4407 443.902 1 397.737 1 347Z" stroke="black" stroke-width="2"/>
<path d="M115.667 598.703L441.636 21.0304L414.31 652.359C415.82 663.029 415.822 666.069 414.09 657.45L414.31 652.359C407.937 607.341 374.698 426.508 331.45 412.673C285.538 397.987 239.627 456.733 115.667 598.703Z" fill="black" stroke="black" stroke-width="3"/>
<path d="M347.002 1C397.739 1.00022 443.904 39.4409 477.442 102.105C510.959 164.728 531.72 251.31 531.72 347C531.72 442.69 510.959 529.272 477.442 591.895C443.904 654.559 397.739 693 347.002 693C296.265 693 250.1 654.559 216.561 591.895C183.044 529.272 162.283 442.69 162.283 347C162.283 251.31 183.044 164.728 216.561 102.105C250.1 39.4407 296.265 1 347.002 1Z" stroke="black" stroke-width="2"/>
<path d="M1 347C1.00022 296.262 39.4409 250.098 102.105 216.559C164.728 183.043 251.31 162.282 347 162.282C442.69 162.282 529.272 183.043 591.894 216.559C654.559 250.098 693 296.262 693 347C693 397.737 654.559 443.902 591.894 477.441C529.272 510.957 442.69 531.718 347 531.718C251.31 531.718 164.728 510.957 102.105 477.441C39.4407 443.902 1 397.737 1 347Z" stroke="black" stroke-width="2"/>
<path d="M115.667 598.703L441.636 21.0304L414.31 652.359C415.82 663.029 415.822 666.069 414.09 657.45L414.31 652.359C407.937 607.341 374.698 426.508 331.45 412.673C285.538 397.987 239.627 456.733 115.667 598.703Z" fill="black" stroke="black" stroke-width="3"/>
</svg>
